<?xml version="1.0" standalone="no"?><!DOCTYPE svg PUBLIC "-//W3C//DTD SVG 1.1//EN" "http://www.w3.org/Graphics/SVG/1.1/DTD/svg11.dtd"><svg t="1562486122451" class="icon" viewBox="0 0 1024 1024" version="1.1" xmlns="http://www.w3.org/2000/svg" p-id="3585" xmlns:xlink="http://www.w3.org/1999/xlink" width="200" height="200"><defs><style type="text/css"></style></defs><path d="M850.518741 0.511744H386.366817V0H288.111944c-5.629185 0-11.258371 0-16.887556 0.511744H173.993003C78.296852 0.511744 0.511744 78.296852 0.511744 173.993003v97.231385C0 276.853573 0 282.482759 0 288.111944v82.902549h0.511744v479.504248c0 95.696152 77.785107 173.481259 173.481259 173.481259h284.017992c17.911044 0 32.751624-14.328836 32.751624-32.23988v-0.511744c0-18.422789-14.328836-33.263368-32.751624-33.263369H173.993003c-59.362319 0-107.466267-48.103948-107.466266-107.466266V371.014493h241.543228c42.986507 0 77.785107-34.798601 77.785107-77.785108V67.038481h464.151925c59.362319 0 107.466267 48.103948 107.466266 107.466267v292.205897c0 18.422789 14.84058 33.263368 33.263369 33.263368s32.751624-14.84058 32.751624-33.263368V173.993003C1024 78.296852 946.214893 0.511744 850.518741 0.511744z" p-id="3586"></path><path d="M990.224888 785.527236h-138.170915v-138.170914c0-18.422789-14.84058-33.263368-33.263368-33.263368s-33.263368 14.84058-33.263369 33.263368v138.170914h-138.170914c-18.422789 0-33.263368 14.84058-33.263368 33.263369s14.84058 33.263368 33.263368 33.263368h138.170914v138.170915c0 18.422789 14.84058 33.263368 33.263369 33.263368s33.263368-14.84058 33.263368-33.263368v-138.170915h138.170915c18.422789 0 33.263368-14.84058 33.263368-33.263368s-14.84058-33.263368-33.263368-33.263369z" p-id="3587"></path></svg>